<svg xmlns="http://www.w3.org/2000/svg" xmlns:xlink="http://www.w3.org/1999/xlink" contentStyleType="text/css" data-diagram-type="ACTIVITY" height="888px" preserveAspectRatio="none" style="width:425px;height:888px;background:#FFFFFF;" version="1.1" viewBox="0 0 425 888" width="425px" zoomAndPan="magnify"><title>Flujo de Procesamiento - plan-pons</title><defs/><g><g class="title" data-source-line="1"><text fill="#000000" font-family="sans-serif" font-size="14" font-weight="bold" lengthAdjust="spacing" textLength="279.0703" x="71.7639" y="32.9951">Flujo de Procesamiento - plan-pons</text></g><ellipse cx="157.7822" cy="57.2969" fill="#222222" rx="10" ry="10" style="stroke:#222222;stroke-width:1;"/><rect fill="none" height="164.1719" style="stroke:#000000;stroke-width:1.5;" width="221.0254" x="47.2695" y="77.2969"/><path d="M193.0996,77.2969 L193.0996,86.5938 L183.0996,96.5938 L47.2695,96.5938" fill="none" style="stroke:#000000;stroke-width:1.5;"/><text fill="#000000" font-family="sans-serif" font-size="14" lengthAdjust="spacing" textLength="135.8301" x="50.2695" y="91.292">1. Lectura de datos</text><rect fill="#F1F1F1" height="47.9375" rx="12.5" ry="12.5" style="stroke:#181818;stroke-width:0.5;" width="171.2949" x="72.1348" y="113.5938"/><text fill="#000000" font-family="sans-serif" font-size="12" lengthAdjust="spacing" textLength="151.2949" x="82.1348" y="134.7324">Leer maestro de Cirug&#237;as</text><text fill="#000000" font-family="sans-serif" font-size="12" lengthAdjust="spacing" textLength="111.2285" x="82.1348" y="148.7012">(data/cirugias.csv)</text><rect fill="#F1F1F1" height="47.9375" rx="12.5" ry="12.5" style="stroke:#181818;stroke-width:0.5;" width="201.0254" x="57.2695" y="181.5313"/><text fill="#000000" font-family="sans-serif" font-size="12" lengthAdjust="spacing" textLength="181.0254" x="67.2695" y="202.6699">Leer maestro de Desmontajes</text><text fill="#000000" font-family="sans-serif" font-size="12" lengthAdjust="spacing" textLength="141.1172" x="67.2695" y="216.6387">(data/desmontajes.csv)</text><rect fill="none" height="190.2031" style="stroke:#000000;stroke-width:1.5;" width="293.5645" x="11" y="251.4688"/><path d="M218.3809,251.4688 L218.3809,260.7656 L208.3809,270.7656 L11,270.7656" fill="none" style="stroke:#000000;stroke-width:1.5;"/><text fill="#000000" font-family="sans-serif" font-size="14" lengthAdjust="spacing" textLength="197.3809" x="14" y="265.4639">2. Limpieza y Normalizaci&#243;n</text><rect fill="#F1F1F1" height="33.9688" rx="12.5" ry="12.5" style="stroke:#181818;stroke-width:0.5;" width="269.6035" x="22.9805" y="287.7656"/><text fill="#000000" font-family="sans-serif" font-size="12" lengthAdjust="spacing" textLength="249.6035" x="32.9805" y="308.9043">Estandarizar formatos de fecha y c&#243;digos</text><rect fill="#F1F1F1" height="33.9688" rx="12.5" ry="12.5" style="stroke:#181818;stroke-width:0.5;" width="232.0332" x="41.7656" y="341.7344"/><text fill="#000000" font-family="sans-serif" font-size="12" lengthAdjust="spacing" textLength="212.0332" x="51.7656" y="362.873">Eliminar duplicados y valores nulos</text><rect fill="#F1F1F1" height="33.9688" rx="12.5" ry="12.5" style="stroke:#181818;stroke-width:0.5;" width="273.5645" x="21" y="395.7031"/><text fill="#000000" font-family="sans-serif" font-size="12" lengthAdjust="spacing" textLength="253.5645" x="31" y="416.8418">Renombrar columnas para homogeneidad</text><rect fill="none" height="96.2344" style="stroke:#000000;stroke-width:1.5;" width="191.8164" x="61.874" y="451.6719"/><path d="M218.6484,451.6719 L218.6484,460.9688 L208.6484,470.9688 L61.874,470.9688" fill="none" style="stroke:#000000;stroke-width:1.5;"/><text fill="#000000" font-family="sans-serif" font-size="14" lengthAdjust="spacing" textLength="146.7744" x="64.874" y="465.667">3. Uni&#243;n de Datasets</text><rect fill="#F1F1F1" height="47.9375" rx="12.5" ry="12.5" style="stroke:#181818;stroke-width:0.5;" width="171.8164" x="71.874" y="487.9688"/><text fill="#000000" font-family="sans-serif" font-size="12" lengthAdjust="spacing" textLength="151.8164" x="81.874" y="509.1074">Merge por c&#243;digo_cirugia</text><text fill="#000000" font-family="sans-serif" font-size="12" lengthAdjust="spacing" textLength="65.6543" x="81.874" y="523.0762">(inner join)</text><rect fill="none" height="102.9648" style="stroke:#000000;stroke-width:1.5;" width="356.4507" x="58.1475" y="557.9063"/><path d="M227.1309,557.9063 L227.1309,567.2031 L217.1309,577.2031 L58.1475,577.2031" fill="none" style="stroke:#000000;stroke-width:1.5;"/><text fill="#000000" font-family="sans-serif" font-size="14" lengthAdjust="spacing" textLength="158.9834" x="61.1475" y="571.9014">4. C&#225;lculo de Auditor&#237;a</text><path d="M267.417,593.4727 L267.417,617.1719 L247.417,621.1719 L267.417,625.1719 L267.417,648.8711 A0,0 0 0 0 267.417,648.8711 L404.5981,648.8711 A0,0 0 0 0 404.5981,648.8711 L404.5981,603.4727 L394.5981,593.4727 L267.417,593.4727 A0,0 0 0 0 267.417,593.4727" fill="#FEFFDD" style="stroke:#181818;stroke-width:0.5;"/><path d="M394.5981,593.4727 L394.5981,603.4727 L404.5981,603.4727 L394.5981,593.4727" fill="#FEFFDD" style="stroke:#181818;stroke-width:0.5;"/><text fill="#000000" font-family="sans-serif" font-size="13" lengthAdjust="spacing" textLength="107.9165" x="273.417" y="610.5396">&#8226; Nuevo registro</text><text fill="#000000" font-family="sans-serif" font-size="13" lengthAdjust="spacing" textLength="82.3418" x="273.417" y="625.6724">&#8226; Modificado</text><text fill="#000000" font-family="sans-serif" font-size="13" lengthAdjust="spacing" textLength="75.9243" x="273.417" y="640.8052">&#8226; Eliminado</text><rect fill="#F1F1F1" height="47.9375" rx="12.5" ry="12.5" style="stroke:#181818;stroke-width:0.5;" width="179.2695" x="68.1475" y="597.2031"/><text fill="#000000" font-family="sans-serif" font-size="12" lengthAdjust="spacing" textLength="145.8574" x="78.1475" y="618.3418">Calcular estado_registro</text><text fill="#000000" font-family="sans-serif" font-size="12" lengthAdjust="spacing" textLength="159.2695" x="78.1475" y="632.3105">(concordante/discrepante)</text><rect fill="none" height="164.1719" style="stroke:#000000;stroke-width:1.5;" width="218.8867" x="48.3389" y="670.8711"/><path d="M159.5791,670.8711 L159.5791,680.168 L149.5791,690.168 L48.3389,690.168" fill="none" style="stroke:#000000;stroke-width:1.5;"/><text fill="#000000" font-family="sans-serif" font-size="14" lengthAdjust="spacing" textLength="101.2402" x="51.3389" y="684.8662">5. Exportaci&#243;n</text><rect fill="#F1F1F1" height="47.9375" rx="12.5" ry="12.5" style="stroke:#181818;stroke-width:0.5;" width="198.8867" x="58.3389" y="707.168"/><text fill="#000000" font-family="sans-serif" font-size="12" lengthAdjust="spacing" textLength="178.8867" x="68.3389" y="728.3066">Guardar resultado en Parquet</text><text fill="#000000" font-family="sans-serif" font-size="12" lengthAdjust="spacing" textLength="138.2285" x="68.3389" y="742.2754">(output/result.parquet)</text><rect fill="#F1F1F1" height="47.9375" rx="12.5" ry="12.5" style="stroke:#181818;stroke-width:0.5;" width="134.8027" x="90.3809" y="775.1055"/><text fill="#000000" font-family="sans-serif" font-size="12" lengthAdjust="spacing" textLength="98.5488" x="100.3809" y="796.2441">Exportar a Excel</text><text fill="#000000" font-family="sans-serif" font-size="12" lengthAdjust="spacing" textLength="114.8027" x="100.3809" y="810.2129">(output/result.xlsx)</text><ellipse cx="157.7822" cy="866.043" fill="none" rx="11" ry="11" style="stroke:#222222;stroke-width:1;"/><ellipse cx="157.7822" cy="866.043" fill="#222222" rx="6" ry="6" style="stroke:#222222;stroke-width:1;"/><line style="stroke:#181818;stroke-width:1;" x1="157.7822" x2="157.7822" y1="161.5313" y2="181.5313"/><polygon fill="#181818" points="153.7822,171.5313,157.7822,181.5313,161.7822,171.5313,157.7822,175.5313" style="stroke:#181818;stroke-width:1;"/><line style="stroke:#181818;stroke-width:1;" x1="157.7822" x2="157.7822" y1="67.2969" y2="113.5938"/><polygon fill="#181818" points="153.7822,103.5938,157.7822,113.5938,161.7822,103.5938,157.7822,107.5938" style="stroke:#181818;stroke-width:1;"/><line style="stroke:#181818;stroke-width:1;" x1="157.7822" x2="157.7822" y1="321.7344" y2="341.7344"/><polygon fill="#181818" points="153.7822,331.7344,157.7822,341.7344,161.7822,331.7344,157.7822,335.7344" style="stroke:#181818;stroke-width:1;"/><line style="stroke:#181818;stroke-width:1;" x1="157.7822" x2="157.7822" y1="375.7031" y2="395.7031"/><polygon fill="#181818" points="153.7822,385.7031,157.7822,395.7031,161.7822,385.7031,157.7822,389.7031" style="stroke:#181818;stroke-width:1;"/><line style="stroke:#181818;stroke-width:1;" x1="157.7822" x2="157.7822" y1="229.4688" y2="287.7656"/><polygon fill="#181818" points="153.7822,277.7656,157.7822,287.7656,161.7822,277.7656,157.7822,281.7656" style="stroke:#181818;stroke-width:1;"/><line style="stroke:#181818;stroke-width:1;" x1="157.7822" x2="157.7822" y1="429.6719" y2="487.9688"/><polygon fill="#181818" points="153.7822,477.9688,157.7822,487.9688,161.7822,477.9688,157.7822,481.9688" style="stroke:#181818;stroke-width:1;"/><line style="stroke:#181818;stroke-width:1;" x1="157.7822" x2="157.7822" y1="535.9063" y2="597.2031"/><polygon fill="#181818" points="153.7822,587.2031,157.7822,597.2031,161.7822,587.2031,157.7822,591.2031" style="stroke:#181818;stroke-width:1;"/><line style="stroke:#181818;stroke-width:1;" x1="157.7822" x2="157.7822" y1="755.1055" y2="775.1055"/><polygon fill="#181818" points="153.7822,765.1055,157.7822,775.1055,161.7822,765.1055,157.7822,769.1055" style="stroke:#181818;stroke-width:1;"/><line style="stroke:#181818;stroke-width:1;" x1="157.7822" x2="157.7822" y1="645.1406" y2="707.168"/><polygon fill="#181818" points="153.7822,697.168,157.7822,707.168,161.7822,697.168,157.7822,701.168" style="stroke:#181818;stroke-width:1;"/><line style="stroke:#181818;stroke-width:1;" x1="157.7822" x2="157.7822" y1="823.043" y2="855.043"/><polygon fill="#181818" points="153.7822,845.043,157.7822,855.043,161.7822,845.043,157.7822,849.043" style="stroke:#181818;stroke-width:1;"/><!--SRC=[RP9BRjj038RtEWMHLRk8ZBusxIfmt6wI82ZGNO60dQ5b6YDIdOVXf2ZGgxJxhd84twGdAKUMq-Qn4IJovpyV_r7c70ZUXx9My0INKHqbx9aaAnp3452E1vNKD2bZp4qps9Cpgy3HYnREoEKIiOvwp9gEu5i3yFQCA4AFb78SRUSSIxVxZUcpF3CTpbmjCARMfStpTq-Dd5BgLJAkwMx8_ojDSz_lyRmq7ku7fXk4QxZGs6FW6tIykvK9R65RYCTevGZBgZ3eUjoItAfEkTsjvqxJoBG8tBEOqfSXi4DlsclOOD182QI4IVUHHFilqOHEG-a54nWMmafxxKY8FVg7iAzQ-2ILR5pMrakK3_6TK-m81eq7dAifBqk2HIoejR8yslzr2_FTp-2CgvgU5CzPeyK-sSwnzepIGhPThY9rNECsLwVYD7gKJ3FFoKKQwljuDQAP87AtolO1yEV7BxWej54up0FSDSxLyt9Cwh_Y5EDK8_6ZvGFuDoqijhPoldTV7meQLRIZKWaLsiRX4kFNGjcmjUIXvDc-smxx-lv_cimYeFaw2e_Ksv2s-mXJrk4l]--></g></svg>